<?xml version="1.0" standalone="no"?>
<!DOCTYPE svg PUBLIC "-//W3C//DTD SVG 1.1//EN" "http://www.w3.org/Graphics/SVG/1.1/DTD/svg11.dtd">
<!--Generator: Xara Designer (www.xara.com), SVG filter version: 6.0.0.4-->
<svg stroke-width="0.501" stroke-linejoin="bevel" fill-rule="evenodd" xmlns:xlink="http://www.w3.org/1999/xlink" xmlns="http://www.w3.org/2000/svg" version="1.1" overflow="visible" width="612pt" height="792pt" viewBox="0 0 612 792">
 <defs>
	</defs>
 <g id="Document" fill="none" stroke="black" font-family="Times New Roman" font-size="16" transform="scale(1 -1)">
  <g id="Spread" transform="translate(0 -792)">
   <g id="Layer 1">
    <g id="Group" stroke="none">
     <g id="Group_1" stroke-linejoin="miter" stroke-linecap="round" stroke-width="1.318" fill="#bd1f3f" stroke-miterlimit="79.8403193612775">
      <path d="M 273.692,344.788 L 260.25,344.788 L 260.25,354.522 L 273.561,354.522 L 273.561,354.522 C 274.009,354.522 274.459,354.417 274.886,354.207 C 275.349,353.978 275.72,353.64 276,353.245 L 276.007,353.23 L 279.969,346.359 L 279.981,346.343 C 278.026,345.314 275.861,344.788 273.692,344.788 Z" marker-start="none" marker-end="none"/>
      <path d="M 260.25,358.953 L 260.25,371.666 L 273.692,371.666 L 273.692,371.665 L 273.684,371.665 L 273.692,371.652 L 273.692,371.665 C 273.715,371.665 273.743,371.665 273.771,371.665 L 268.493,358.953 L 260.25,358.953 Z" marker-start="none" marker-end="none"/>
      <path d="M 283.527,349.066 L 283.514,349.081 L 280.134,354.942 L 279.758,355.597 C 278.96,356.806 278.053,357.574 276.867,358.169 C 275.764,358.72 274.591,358.969 273.435,358.953 L 273.435,358.953 L 273.431,358.953 L 278.286,370.86 C 279.813,370.304 281.26,369.462 282.555,368.328 C 288.131,363.436 288.686,354.936 283.792,349.363 C 283.701,349.259 283.616,349.163 283.527,349.066 Z" marker-start="none" marker-end="none"/>
     </g>
     <path d="M 344.413,351.141 C 343.484,351.649 342.761,352.36 342.248,353.274 C 341.742,354.192 341.484,355.269 341.477,356.505 C 341.484,357.676 341.742,358.723 342.251,359.626 C 342.755,360.534 343.468,361.242 344.377,361.755 C 345.288,362.267 346.35,362.524 347.551,362.535 C 348.482,362.535 349.329,362.395 350.088,362.106 C 350.852,361.82 351.498,361.384 352.027,360.8 C 352.562,360.215 352.943,359.485 353.183,358.613 C 353.418,357.736 353.481,356.713 353.379,355.552 C 353.366,355.472 353.301,355.41 353.216,355.41 L 344.271,355.41 L 344.311,355.191 C 344.407,354.806 344.567,354.468 344.796,354.165 C 345.101,353.769 345.497,353.455 346.002,353.234 C 346.499,353.011 347.088,352.896 347.762,352.895 C 348.134,352.895 348.523,352.936 348.925,353.033 C 349.329,353.126 349.704,353.254 350.054,353.426 C 350.407,353.601 350.689,353.807 350.904,354.053 C 350.966,354.123 351.072,354.125 351.135,354.06 L 352.664,352.574 C 352.726,352.512 352.73,352.416 352.67,352.352 C 352.265,351.908 351.788,351.548 351.242,351.254 C 350.7,350.965 350.126,350.744 349.519,350.599 C 348.911,350.455 348.312,350.384 347.712,350.384 C 346.452,350.395 345.35,350.641 344.413,351.141 Z M 380.494,351.141 C 379.561,351.649 378.838,352.36 378.326,353.274 C 377.82,354.192 377.564,355.269 377.557,356.505 C 377.564,357.676 377.82,358.723 378.328,359.626 C 378.834,360.534 379.547,361.242 380.458,361.755 C 381.368,362.267 382.427,362.524 383.633,362.535 C 384.56,362.535 385.403,362.395 386.167,362.106 C 386.93,361.82 387.581,361.384 388.108,360.8 C 388.64,360.215 389.025,359.485 389.261,358.613 C 389.498,357.736 389.561,356.713 389.455,355.552 C 389.449,355.472 389.382,355.41 389.298,355.41 L 380.351,355.41 L 380.39,355.191 C 380.488,354.806 380.649,354.468 380.876,354.165 C 381.178,353.769 381.58,353.455 382.078,353.234 C 382.585,353.011 383.167,352.896 383.837,352.895 C 384.213,352.895 384.601,352.936 385.005,353.033 C 385.403,353.126 385.783,353.254 386.138,353.426 C 386.482,353.601 386.764,353.807 386.983,354.053 C 387.046,354.123 387.152,354.125 387.215,354.06 L 388.744,352.574 C 388.808,352.512 388.811,352.416 388.748,352.352 C 388.346,351.908 387.869,351.548 387.319,351.254 C 386.777,350.965 386.204,350.744 385.598,350.599 C 384.991,350.455 384.391,350.384 383.791,350.384 C 382.528,350.395 381.43,350.641 380.494,351.141 Z M 312.742,350.885 C 312.007,351.183 311.383,351.604 310.857,352.15 C 310.336,352.69 309.932,353.328 309.652,354.059 C 309.373,354.781 309.235,355.576 309.232,356.435 C 309.235,357.286 309.373,358.077 309.655,358.807 C 309.941,359.536 310.341,360.174 310.866,360.724 C 311.392,361.272 312.019,361.696 312.749,361.998 C 313.485,362.3 314.298,362.458 315.195,362.466 C 316.084,362.458 316.896,362.3 317.632,361.998 C 318.369,361.696 319.003,361.272 319.537,360.724 C 320.066,360.175 320.479,359.536 320.763,358.807 C 321.05,358.077 321.198,357.286 321.201,356.435 C 321.198,355.576 321.056,354.781 320.776,354.056 C 320.492,353.328 320.088,352.69 319.561,352.15 C 319.028,351.604 318.399,351.183 317.66,350.885 C 316.923,350.585 316.1,350.432 315.193,350.426 C 314.292,350.432 313.477,350.585 312.742,350.885 Z M 298.706,350.831 C 297.986,351.1 297.358,351.494 296.823,352.013 C 296.284,352.531 295.867,353.166 295.571,353.909 C 295.272,354.659 295.123,355.511 295.119,356.452 C 295.123,357.435 295.271,358.302 295.564,359.05 C 295.856,359.802 296.269,360.434 296.795,360.948 C 297.331,361.454 297.953,361.841 298.664,362.101 C 299.38,362.357 300.155,362.484 300.994,362.486 C 301.353,362.484 301.725,362.444 302.12,362.357 C 302.512,362.267 302.895,362.137 303.275,361.965 C 303.654,361.787 304.002,361.574 304.314,361.316 C 304.467,361.184 304.615,361.042 304.741,360.887 L 304.782,360.832 L 304.782,366.786 C 304.782,366.871 304.856,366.943 304.944,366.943 L 307.299,366.943 C 307.388,366.943 307.457,366.871 307.457,366.786 L 307.457,350.818 C 307.457,350.73 307.388,350.66 307.299,350.66 L 305.08,350.66 C 304.997,350.66 304.931,350.723 304.921,350.806 L 304.817,352.142 L 304.562,351.841 C 304.379,351.64 304.18,351.459 303.965,351.308 C 303.534,351 303.069,350.775 302.564,350.635 C 302.067,350.493 301.558,350.42 301.039,350.428 C 300.199,350.429 299.418,350.565 298.706,350.831 Z M 324.098,351.534 C 323.399,352.248 323.061,353.297 323.053,354.652 L 323.053,365.067 C 323.053,365.149 323.111,365.222 323.195,365.23 L 325.57,365.48 C 325.665,365.49 325.749,365.416 325.749,365.321 L 325.749,362.212 L 328.877,362.212 C 328.966,362.212 329.039,362.141 329.039,362.053 L 329.039,360.018 C 329.039,359.929 328.966,359.861 328.877,359.861 L 325.724,359.861 L 325.724,354.652 C 325.724,354.076 325.852,353.662 326.085,353.385 C 326.313,353.112 326.669,352.964 327.186,352.959 C 327.398,352.964 327.623,352.994 327.861,353.064 C 328.102,353.131 328.331,353.223 328.551,353.333 C 328.639,353.376 328.744,353.333 328.773,353.24 L 329.464,351.231 C 329.491,351.152 329.45,351.066 329.376,351.032 C 328.982,350.859 328.6,350.73 328.219,350.644 C 327.848,350.557 327.454,350.518 327.051,350.518 C 325.794,350.486 324.8,350.818 324.098,351.534 Z M 331.102,350.818 L 331.102,366.786 C 331.102,366.871 331.17,366.943 331.259,366.943 L 333.633,366.943 C 333.72,366.943 333.795,366.871 333.795,366.786 L 333.795,357.877 L 337.694,362.181 L 337.81,362.233 L 340.667,362.233 C 340.757,362.233 340.825,362.164 340.825,362.076 L 340.825,361.939 L 340.787,361.827 L 336.027,356.777 L 341.447,351.086 L 341.492,350.98 L 341.492,350.818 C 341.492,350.73 341.421,350.66 341.334,350.66 L 338.456,350.66 L 338.334,350.707 L 333.795,355.613 L 333.795,350.818 C 333.795,350.73 333.72,350.66 333.633,350.66 L 331.259,350.66 C 331.17,350.66 331.102,350.73 331.102,350.818 Z M 355.463,350.818 L 355.463,362.076 C 355.463,362.164 355.529,362.233 355.619,362.233 L 357.811,362.233 C 357.893,362.233 357.96,362.172 357.971,362.093 L 358.08,361.049 L 358.298,361.325 C 358.464,361.515 358.64,361.677 358.834,361.811 C 359.207,362.076 359.607,362.258 360.032,362.352 C 360.449,362.445 360.868,362.493 361.285,362.484 C 361.537,362.484 361.781,362.466 362.019,362.431 C 362.096,362.42 362.153,362.352 362.153,362.273 L 362.153,359.863 C 362.153,359.759 362.072,359.701 361.994,359.701 L 361.937,359.713 L 361.74,359.762 C 361.52,359.812 361.277,359.838 361.009,359.838 C 360.485,359.838 360.005,359.731 359.568,359.515 C 359.142,359.302 358.799,358.984 358.533,358.554 C 358.278,358.125 358.137,357.586 358.133,356.913 L 358.133,350.818 C 358.133,350.73 358.057,350.66 357.971,350.66 L 355.619,350.66 C 355.529,350.66 355.463,350.73 355.463,350.818 Z M 364.311,350.818 L 364.311,362.096 C 364.311,362.184 364.383,362.258 364.472,362.258 L 366.619,362.258 C 366.703,362.258 366.771,362.191 366.78,362.111 L 366.885,360.818 L 367.057,360.994 C 367.486,361.4 367.948,361.72 368.441,361.955 C 369.093,362.264 369.796,362.42 370.55,362.415 C 371.495,362.414 372.346,362.197 373.105,361.765 C 373.856,361.332 374.453,360.695 374.887,359.868 C 375.322,359.044 375.539,358.038 375.551,356.87 L 375.551,350.818 C 375.551,350.73 375.48,350.66 375.393,350.66 L 373.02,350.66 C 372.929,350.66 372.857,350.73 372.857,350.818 L 372.857,356.846 C 372.856,357.478 372.743,358.021 372.516,358.48 C 372.293,358.937 371.974,359.291 371.546,359.547 C 371.123,359.795 370.603,359.926 369.982,359.926 C 369.378,359.923 368.857,359.774 368.415,359.493 C 367.968,359.205 367.62,358.821 367.373,358.338 C 367.114,357.853 366.991,357.31 366.982,356.711 L 366.982,350.818 C 366.982,350.73 366.913,350.66 366.824,350.66 L 364.472,350.66 C 364.383,350.66 364.311,350.73 364.311,350.818 Z M 391.629,350.818 L 391.629,366.786 C 391.629,366.871 391.697,366.943 391.787,366.943 L 394.141,366.943 C 394.231,366.943 394.299,366.871 394.299,366.786 L 394.299,350.818 C 394.299,350.73 394.231,350.66 394.141,350.66 L 391.787,350.66 C 391.697,350.66 391.629,350.73 391.629,350.818 Z M 302.925,353.378 C 303.434,353.668 303.848,354.076 304.152,354.597 C 304.456,355.12 304.617,355.739 304.622,356.452 C 304.617,357.158 304.456,357.767 304.152,358.288 C 303.848,358.81 303.434,359.218 302.925,359.507 C 302.407,359.802 301.831,359.95 301.199,359.956 C 300.553,359.956 299.973,359.812 299.467,359.536 C 298.957,359.267 298.555,358.873 298.255,358.348 C 297.958,357.834 297.794,357.205 297.794,356.457 C 297.794,355.726 297.958,355.1 298.255,354.577 C 298.555,354.053 298.957,353.656 299.467,353.37 C 299.976,353.083 300.553,352.94 301.199,352.936 C 301.831,352.94 302.409,353.093 302.925,353.378 Z M 316.97,353.412 C 317.467,353.725 317.845,354.138 318.107,354.664 C 318.369,355.191 318.507,355.78 318.507,356.434 C 318.5,357.079 318.357,357.669 318.081,358.202 C 317.802,358.732 317.416,359.164 316.921,359.485 C 316.428,359.802 315.855,359.965 315.193,359.972 C 314.505,359.965 313.916,359.802 313.432,359.485 C 312.942,359.164 312.565,358.737 312.305,358.206 C 312.042,357.673 311.904,357.081 311.904,356.434 C 311.904,355.78 312.042,355.191 312.305,354.664 C 312.565,354.138 312.942,353.725 313.431,353.412 C 313.916,353.107 314.503,352.947 315.195,352.936 C 315.891,352.947 316.481,353.107 316.97,353.412 Z M 350.771,357.714 L 350.74,357.948 C 350.664,358.346 350.524,358.676 350.317,358.959 C 350.052,359.338 349.693,359.62 349.235,359.819 C 348.776,360.015 348.238,360.117 347.621,360.117 C 347.065,360.117 346.559,360.015 346.097,359.819 C 345.637,359.62 345.253,359.334 344.934,358.949 C 344.702,358.661 344.521,358.325 344.391,357.931 L 344.333,357.714 L 350.771,357.714 Z M 386.851,357.714 L 386.819,357.948 C 386.744,358.346 386.602,358.676 386.401,358.959 C 386.131,359.338 385.773,359.62 385.315,359.819 C 384.856,360.015 384.318,360.117 383.702,360.117 C 383.148,360.117 382.638,360.015 382.175,359.819 C 381.72,359.62 381.33,359.334 381.015,358.949 C 380.781,358.661 380.599,358.325 380.473,357.931 L 380.411,357.714 L 386.851,357.714 Z" fill="#333333" stroke-width="0.532" fill-rule="evenodd" marker-start="none" marker-end="none" stroke-miterlimit="79.8403193612775"/>
    </g>
    <g id="Group_2" fill-rule="nonzero" stroke-linejoin="round" stroke-linecap="round" stroke="none" stroke-width="0.55" fill="#999999" stroke-miterlimit="79.8403193612775">
     <g id="Group_3">
      <path d="M 295.737,341.162 C 295.301,341.603 295.084,342.184 295.084,342.903 C 295.084,343.623 295.307,344.198 295.754,344.627 C 296.201,345.057 296.734,345.272 297.352,345.272 C 297.97,345.272 298.468,345.01 298.845,344.488 L 298.845,347.03 L 299.82,347.03 L 299.82,340.57 L 298.845,340.57 L 298.845,341.266 C 298.485,340.756 297.96,340.5 297.269,340.5 C 296.683,340.5 296.172,340.721 295.737,341.162 Z M 301.621,341.192 C 301.157,341.654 300.925,342.218 300.925,342.885 C 300.925,343.553 301.157,344.118 301.621,344.579 C 302.086,345.041 302.667,345.272 303.363,345.272 C 304.06,345.272 304.64,345.041 305.104,344.579 C 305.569,344.118 305.801,343.553 305.801,342.885 C 305.801,342.218 305.569,341.654 305.104,341.192 C 304.64,340.731 304.06,340.5 303.363,340.5 C 302.667,340.5 302.086,340.731 301.621,341.192 Z M 307.297,341.158 C 306.833,341.596 306.601,342.168 306.601,342.877 C 306.601,343.585 306.843,344.161 307.328,344.605 C 307.813,345.05 308.403,345.272 309.1,345.272 C 309.796,345.272 310.385,345.03 310.867,344.549 L 310.292,343.844 C 309.892,344.192 309.488,344.366 309.082,344.366 C 308.676,344.366 308.323,344.23 308.025,343.961 C 307.726,343.691 307.577,343.343 307.577,342.916 C 307.577,342.49 307.724,342.128 308.021,341.832 C 308.316,341.536 308.68,341.388 309.113,341.388 C 309.546,341.388 309.953,341.585 310.336,341.98 L 310.911,341.353 C 310.348,340.784 309.698,340.5 308.961,340.5 C 308.316,340.5 307.762,340.719 307.297,341.158 Z M 312.353,340.979 C 312.03,341.298 311.87,341.759 311.87,342.364 L 311.87,345.202 L 312.845,345.202 L 312.845,342.659 C 312.845,341.806 313.199,341.38 313.907,341.38 C 314.244,341.38 314.537,341.491 314.787,341.714 C 315.037,341.938 315.161,342.264 315.161,342.694 L 315.161,345.202 L 316.136,345.202 L 316.136,340.57 L 315.161,340.57 L 315.161,341.414 C 315.004,341.13 314.788,340.906 314.512,340.743 C 314.237,340.581 313.939,340.5 313.62,340.5 C 313.097,340.5 312.675,340.66 312.353,340.979 Z M 326.765,341.149 C 326.309,341.581 326.082,342.161 326.082,342.891 C 326.082,343.619 326.314,344.198 326.778,344.627 C 327.243,345.057 327.789,345.272 328.419,345.272 C 329.049,345.272 329.584,345.082 330.026,344.701 C 330.467,344.321 330.688,343.797 330.688,343.13 L 330.688,342.459 L 327.057,342.459 C 327.08,342.122 327.234,341.851 327.518,341.645 C 327.802,341.439 328.128,341.336 328.494,341.336 C 329.074,341.336 329.515,341.519 329.816,341.884 L 330.374,341.275 C 329.875,340.759 329.225,340.5 328.423,340.5 C 327.774,340.5 327.22,340.716 326.765,341.149 Z M 338.051,340.931 C 337.758,341.218 337.611,341.606 337.611,342.094 L 337.611,344.418 L 337.028,344.418 L 337.028,345.202 L 337.611,345.202 L 337.611,346.656 L 338.587,346.656 L 338.587,345.202 L 339.805,345.202 L 339.805,344.418 L 338.587,344.418 L 338.587,342.067 C 338.587,341.847 338.645,341.671 338.761,341.54 C 338.877,341.409 339.039,341.345 339.248,341.345 C 339.457,341.345 339.658,341.446 339.849,341.65 L 340.25,340.961 C 339.907,340.653 339.529,340.5 339.113,340.5 C 338.698,340.5 338.344,340.643 338.051,340.931 Z M 341.151,340.909 C 340.834,341.182 340.676,341.546 340.676,342.002 C 340.676,342.458 340.844,342.798 341.181,343.026 C 341.517,343.252 341.973,343.364 342.548,343.364 L 343.811,343.364 L 343.811,343.539 C 343.811,344.154 343.468,344.462 342.784,344.462 C 342.354,344.462 341.907,344.305 341.443,343.991 L 341.007,344.601 C 341.57,345.048 342.209,345.272 342.923,345.272 C 343.468,345.272 343.914,345.134 344.259,344.858 C 344.604,344.582 344.777,344.149 344.777,343.556 L 344.777,340.57 L 343.889,340.57 L 343.889,341.187 C 343.506,340.729 342.992,340.5 342.348,340.5 C 341.866,340.5 341.467,340.636 341.151,340.909 Z M 346.801,340.931 C 346.508,341.218 346.361,341.606 346.361,342.094 L 346.361,344.418 L 345.778,344.418 L 345.778,345.202 L 346.361,345.202 L 346.361,346.656 L 347.337,346.656 L 347.337,345.202 L 348.555,345.202 L 348.555,344.418 L 347.337,344.418 L 347.337,342.067 C 347.337,341.847 347.395,341.671 347.51,341.54 C 347.627,341.409 347.789,341.345 347.998,341.345 C 348.207,341.345 348.407,341.446 348.599,341.65 L 349,340.961 C 348.657,340.653 348.279,340.5 347.863,340.5 C 347.448,340.5 347.094,340.643 346.801,340.931 Z M 352.551,341.192 C 352.087,341.654 351.855,342.218 351.855,342.885 C 351.855,343.553 352.087,344.118 352.551,344.579 C 353.016,345.041 353.597,345.272 354.293,345.272 C 354.99,345.272 355.57,345.041 356.034,344.579 C 356.499,344.118 356.731,343.553 356.731,342.885 C 356.731,342.218 356.499,341.654 356.034,341.192 C 355.57,340.731 354.99,340.5 354.293,340.5 C 353.597,340.5 353.016,340.731 352.551,341.192 Z M 317.547,340.57 L 317.547,345.202 L 318.522,345.202 L 318.522,344.357 C 318.662,344.642 318.871,344.865 319.154,345.027 C 319.435,345.19 319.738,345.272 320.063,345.272 C 320.794,345.272 321.291,344.97 321.552,344.366 C 322.011,344.97 322.582,345.272 323.268,345.272 C 323.789,345.272 324.212,345.112 324.534,344.792 C 324.856,344.473 325.018,344.012 325.018,343.408 L 325.018,340.57 L 324.042,340.57 L 324.042,343.112 C 324.042,343.966 323.688,344.392 322.98,344.392 C 322.649,344.392 322.361,344.286 322.114,344.074 C 321.867,343.862 321.738,343.553 321.726,343.147 L 321.726,340.57 L 320.751,340.57 L 320.751,343.112 C 320.751,343.553 320.673,343.877 320.516,344.083 C 320.36,344.289 320.112,344.392 319.776,344.392 C 319.439,344.392 319.146,344.281 318.896,344.057 C 318.646,343.834 318.522,343.507 318.522,343.078 L 318.522,340.57 L 317.547,340.57 Z M 331.76,340.57 L 331.76,345.202 L 332.735,345.202 L 332.735,344.357 C 332.892,344.642 333.108,344.865 333.384,345.027 C 333.659,345.19 333.957,345.272 334.276,345.272 C 334.799,345.272 335.221,345.112 335.544,344.792 C 335.866,344.473 336.026,344.012 336.026,343.408 L 336.026,340.57 L 335.052,340.57 L 335.052,343.112 C 335.052,343.966 334.698,344.392 333.989,344.392 C 333.652,344.392 333.359,344.281 333.109,344.057 C 332.859,343.834 332.735,343.507 332.735,343.078 L 332.735,340.57 L 331.76,340.57 Z M 349.774,340.57 L 349.774,345.202 L 350.749,345.202 L 350.749,340.57 L 349.774,340.57 Z M 357.836,340.57 L 357.836,345.202 L 358.81,345.202 L 358.81,344.357 C 358.968,344.642 359.184,344.865 359.46,345.027 C 359.735,345.19 360.033,345.272 360.352,345.272 C 360.875,345.272 361.297,345.112 361.619,344.792 C 361.941,344.473 362.102,344.012 362.102,343.408 L 362.102,340.57 L 361.127,340.57 L 361.127,343.112 C 361.127,343.966 360.773,344.392 360.064,344.392 C 359.728,344.392 359.434,344.281 359.185,344.057 C 358.935,343.834 358.81,343.507 358.81,343.078 L 358.81,340.57 L 357.836,340.57 Z M 343.454,341.588 C 343.686,341.762 343.801,341.998 343.801,342.293 L 343.801,342.686 L 342.705,342.686 C 342.002,342.686 341.651,342.465 341.651,342.024 C 341.651,341.797 341.738,341.624 341.912,341.506 C 342.087,341.387 342.328,341.328 342.639,341.328 C 342.95,341.328 343.221,341.414 343.454,341.588 Z M 298.462,341.785 C 298.729,342.066 298.863,342.427 298.863,342.868 C 298.863,343.31 298.729,343.678 298.462,343.974 C 298.195,344.27 297.867,344.418 297.479,344.418 C 297.089,344.418 296.755,344.27 296.477,343.974 C 296.198,343.678 296.059,343.308 296.059,342.864 C 296.059,342.42 296.201,342.059 296.485,341.78 C 296.77,341.501 297.104,341.362 297.487,341.362 C 297.87,341.362 298.195,341.502 298.462,341.785 Z M 304.412,341.793 C 304.688,342.074 304.826,342.438 304.826,342.885 C 304.826,343.332 304.688,343.697 304.412,343.979 C 304.137,344.26 303.787,344.4 303.363,344.4 C 302.939,344.4 302.589,344.26 302.314,343.979 C 302.038,343.697 301.901,343.332 301.901,342.885 C 301.901,342.438 302.038,342.074 302.314,341.793 C 302.589,341.512 302.939,341.37 303.363,341.37 C 303.787,341.37 304.137,341.512 304.412,341.793 Z M 355.342,341.793 C 355.618,342.074 355.756,342.438 355.756,342.885 C 355.756,343.332 355.618,343.697 355.342,343.979 C 355.067,344.26 354.717,344.4 354.293,344.4 C 353.869,344.4 353.519,344.26 353.244,343.979 C 352.968,343.697 352.83,343.332 352.83,342.885 C 352.83,342.438 352.968,342.074 353.244,341.793 C 353.519,341.512 353.869,341.37 354.293,341.37 C 354.717,341.37 355.067,341.512 355.342,341.793 Z M 329.347,344.122 C 329.102,344.331 328.803,344.435 328.446,344.435 C 328.089,344.435 327.768,344.327 327.483,344.109 C 327.199,343.891 327.057,343.596 327.057,343.225 L 329.712,343.225 C 329.712,343.615 329.59,343.913 329.347,344.122 Z M 349.835,346.125 C 349.714,346.247 349.652,346.392 349.652,346.56 C 349.652,346.728 349.714,346.874 349.835,346.995 C 349.957,347.117 350.102,347.178 350.27,347.178 C 350.439,347.178 350.584,347.117 350.706,346.995 C 350.828,346.874 350.889,346.728 350.889,346.56 C 350.889,346.392 350.828,346.247 350.706,346.125 C 350.584,346.003 350.439,345.942 350.27,345.942 C 350.102,345.942 349.957,346.003 349.835,346.125 Z" marker-start="none" marker-end="none"/>
     </g>
    </g>
   </g>
  </g>
 </g>
</svg>
